<svg width="841" height="193" viewBox="0 0 841 193" fill="none" xmlns="http://www.w3.org/2000/svg">
<path d="M27.2 130.8C23.0667 130.8 19.1333 129.6 15.4 127.2C11.6667 124.933 8.86667 121.4 7 116.6C6.33333 114.867 5.86667 113 5.6 111C5.33333 109 5.2 107.133 5.2 105.4V103.6C5.2 102.533 5.26667 101.467 5.4 100.4C5.66667 99.3333 6.26667 98.8 7.2 98.8C7.46667 98.8 7.6 98.9333 7.6 99.2C7.6 100 7.53333 100.867 7.4 101.8C7.4 102.6 7.4 103.4 7.4 104.2C7.4 110.467 8.93333 115.2 12 118.4C15.2 121.6 19.1333 123.2 23.8 123.2C28.4667 123.2 33 121.867 37.4 119.2C41.8 116.533 45.8667 113.133 49.6 109C53.3333 104.867 56.8667 99.7333 60.2 93.6C63.5333 87.4667 66.6667 81 69.6 74.2C72.5333 67.2667 75.2667 60.4667 77.8 53.8C80.4667 47.1333 82.9333 41.2 85.2 36C86.5333 32.9333 89 30.3333 92.6 28.2C96.3333 26.0667 99.8667 24.5333 103.2 23.6C102.267 23.4667 101.333 23.4 100.4 23.4C99.6 23.2667 98.8 23.1333 98 23L69.8 20.2C67.6667 19.9333 64.8667 19.7333 61.4 19.6C57.9333 19.4667 54.2667 19.4 50.4 19.4C45.2 19.4 39.8667 19.7333 34.4 20.4C28.9333 20.9333 24 21.9333 19.6 23.4C15.2 24.8667 12 27.0667 10 30C8.93333 31.6 8.4 33.4667 8.4 35.6C8.4 37.7333 9 39.7333 10.2 41.6C11.4 43.4667 12.9333 44.9333 14.8 46C15.0667 46.2667 15.2 46.4667 15.2 46.6C15.2 47 14.8667 47.3333 14.2 47.6C13.6667 47.8667 13.0667 47.8667 12.4 47.6C11.2 46.9333 9.8 45.8 8.2 44.2C6.6 42.6 5.13333 40.9333 3.8 39.2C2.6 37.3333 1.73333 35.8 1.2 34.6C0.4 32.3333 0 30.3333 0 28.6C0 25.4 1.06667 22.8 3.2 20.8C5.46667 18.6667 8.33333 17.0667 11.8 16C15.4 14.8 19.2 14 23.2 13.6C27.3333 13.0667 31.2667 12.8 35 12.8C36.4667 12.8 37.8667 12.8 39.2 12.8C40.5333 12.8 41.8 12.8667 43 13C47.2667 13.2667 51.7333 13.5333 56.4 13.8C61.0667 14.0667 65.8 14.4 70.6 14.8L102.4 17.4C104.533 17.5333 107.733 17.8 112 18.2C116.4 18.4667 120.867 18.6 125.4 18.6C130.333 18.6 134.867 18.3333 139 17.8C143.133 17.1333 145.867 16 147.2 14.4C147.467 13.8667 147.867 13.7333 148.4 14C148.933 14.2667 149.067 14.6 148.8 15C148.4 16.6 147.867 17.8 147.2 18.6C146.533 19.9333 145.6 21.4 144.4 23C143.333 24.6 141.667 25.6667 139.4 26.2C138.867 26.3333 138.133 26.4667 137.2 26.6C136.267 26.6 135.267 26.6 134.2 26.6C131.133 26.6 127.4 26.4 123 26C118.733 25.4667 114.533 24.9333 110.4 24.4C106.4 25.0667 102.933 26.9333 100 30C97.0667 33.0667 94.5333 36.6 92.4 40.6C90.2667 44.4667 88.4 48.1333 86.8 51.6C83.8667 57.6 81.4 63.1333 79.4 68.2C77.5333 73.1333 75.2 78.6 72.4 84.6C69.6 90.7333 66.6667 96.8 63.6 102.8C60.5333 108.667 56.8 114 52.4 118.8C49.0667 122.4 45.2 125.267 40.8 127.4C36.4 129.667 31.8667 130.8 27.2 130.8Z" fill="white"/>
<path d="M120.328 124.2C118.328 124.2 116.528 123.8 114.928 123C113.461 122.2 112.728 120.733 112.728 118.6C112.728 117.4 112.995 116.067 113.528 114.6C114.728 111.533 116.328 107.8 118.328 103.4C120.461 99 122.595 94.7333 124.728 90.6C126.861 86.3333 128.528 82.8667 129.728 80.2C130.528 78.6 130.928 77.4667 130.928 76.8C130.928 75.6 130.261 75.3333 128.928 76C127.595 76.6667 126.128 77.6 124.528 78.8C122.928 80 121.728 80.9333 120.928 81.6C117.461 84.8 113.795 88.6 109.928 93C106.195 97.2667 102.728 101.8 99.5281 106.6C96.4615 111.267 94.0615 115.933 92.3281 120.6C92.1948 121.4 91.3281 122.067 89.7281 122.6C88.1281 123.133 86.6615 123.4 85.3281 123.4C83.1948 123.4 82.3948 122.733 82.9281 121.4C85.9948 114.467 89.1281 106.8 92.3281 98.4C95.6615 90 99.3948 81.4 103.528 72.6C106.595 65.9333 109.995 59.0667 113.728 52C117.595 44.9333 121.861 38.2 126.528 31.8C131.195 25.2667 136.328 19.5333 141.928 14.6C146.861 10.3333 152.261 6.86667 158.128 4.19999C164.128 1.4 170.595 0 177.528 0C180.595 0 183.261 0.666666 185.528 2C187.795 3.2 189.061 5.4 189.328 8.6V10.4C189.328 12.2667 189.128 14.1333 188.728 16C188.595 16.5333 188.061 16.8 187.128 16.8C186.728 16.8 186.595 16.7333 186.728 16.6C187.261 13.1333 186.328 10.6667 183.928 9.2C181.661 7.73333 178.728 6.99999 175.128 6.99999C168.595 6.99999 162.595 8.19999 157.128 10.6C151.661 13 146.595 16.2 141.928 20.2C134.728 26.4667 128.461 34.4667 123.128 44.2C117.795 53.9333 113.195 63.8667 109.328 74C107.461 78.9333 105.595 83.8667 103.728 88.8C101.995 93.7333 100.328 98.3333 98.7281 102.6C104.728 94.6 110.461 87.7333 115.928 82C121.528 76.2667 126.395 72.2 130.528 69.8C133.861 67.9333 136.861 67 139.528 67C142.061 67 143.328 68.0667 143.328 70.2C143.328 72.0667 142.395 74.4667 140.528 77.4C139.595 78.8667 138.128 81.3333 136.128 84.8C134.261 88.2667 132.261 92.0667 130.128 96.2C128.128 100.2 126.395 103.933 124.928 107.4C123.461 110.867 122.728 113.4 122.728 115C122.728 117.133 123.661 118.2 125.528 118.2C126.595 118.2 127.795 117.867 129.128 117.2C130.595 116.533 131.661 115.933 132.328 115.4C135.928 112.733 139.461 109.467 142.928 105.6C146.395 101.733 149.328 98.3333 151.728 95.4C151.861 95.2667 151.928 95.4667 151.928 96C151.928 96.5333 151.795 97.3333 151.528 98.4C151.395 99.3333 150.995 100.133 150.328 100.8C148.861 102.8 147.328 104.733 145.728 106.6C144.261 108.333 142.795 110.067 141.328 111.8C138.795 114.733 135.728 117.533 132.128 120.2C128.661 122.867 124.728 124.2 120.328 124.2Z" fill="white"/>
<path d="M160.917 124.6C155.451 124.6 151.651 123.533 149.517 121.4C147.384 119.267 146.317 116.667 146.317 113.6C146.317 109.733 147.317 105.6 149.317 101.2C151.451 96.8 153.451 93.0667 155.317 90C157.451 86.8 160.317 83.4667 163.917 80C167.517 76.5333 171.451 73.6 175.717 71.2C179.984 68.8 184.117 67.6 188.117 67.6C191.584 67.6 193.984 68.4667 195.317 70.2C196.651 71.8 197.317 73.7333 197.317 76C197.317 80.1333 196.051 83.5333 193.517 86.2C191.117 88.8667 188.117 91.0667 184.517 92.8C180.917 94.4 177.451 95.7333 174.117 96.8C172.117 97.3333 169.784 97.8667 167.117 98.4C164.451 98.9333 161.917 99.2 159.517 99.2C158.584 101.6 157.851 103.933 157.317 106.2C156.784 108.467 156.517 110.533 156.517 112.4C156.517 114.667 157.051 116.533 158.117 118C159.317 119.467 161.251 120.2 163.917 120.2C164.984 120.2 166.251 120.067 167.717 119.8C169.184 119.533 170.784 119.133 172.517 118.6C176.517 117.267 180.451 115.133 184.317 112.2C188.184 109.267 191.717 106.133 194.917 102.8C198.251 99.3333 200.784 96.4667 202.517 94.2C202.917 94.6 203.117 95.0667 203.117 95.6C203.117 96.2667 202.651 97.3333 201.717 98.8C199.051 102.533 195.584 106.4 191.317 110.4C187.051 114.4 182.317 117.8 177.117 120.6C171.917 123.267 166.517 124.6 160.917 124.6ZM161.117 95.2C162.851 95.3333 164.784 95.3333 166.917 95.2C169.184 94.9333 171.384 94.4667 173.517 93.8C178.984 92.2 182.917 89.6667 185.317 86.2C187.851 82.6 189.117 79.4 189.117 76.6C189.117 75 188.784 73.6667 188.117 72.6C187.451 71.5333 186.384 71 184.917 71C181.051 71 177.584 72.4667 174.517 75.4C171.451 78.2 168.784 81.4667 166.517 85.2C164.251 88.9333 162.451 92.2667 161.117 95.2Z" fill="white"/>
<path d="M209.922 128C205.789 128 202.389 126.8 199.722 124.4C197.189 122 196.189 118.4 196.722 113.6C196.855 111.867 197.255 110.067 197.922 108.2C198.722 106.2 199.589 104.267 200.522 102.4C201.322 100.533 202.122 99.6 202.922 99.6C203.589 99.6 203.655 100.133 203.122 101.2C201.389 104.8 200.522 108 200.522 110.8C200.522 113.733 201.522 115.933 203.522 117.4C205.655 118.867 208.389 119.6 211.722 119.6C218.255 119.6 225.455 117.533 233.322 113.4C241.189 109.133 249.322 103.733 257.722 97.2C266.122 90.5333 274.189 83.6 281.922 76.4C276.722 76.1333 271.855 75.8667 267.322 75.6C262.789 75.3333 258.789 75.2 255.322 75.2C252.389 75.2 248.855 75.4667 244.722 76C240.589 76.5333 237.389 77.9333 235.122 80.2C234.189 81.1333 233.322 82.5333 232.522 84.4C231.855 86.1333 231.522 87.9333 231.522 89.8C231.522 90.3333 231.522 90.8667 231.522 91.4C231.655 91.8 231.789 92.2667 231.922 92.8C231.389 92.5333 230.389 92.3333 228.922 92.2C227.589 91.9333 226.722 91.0667 226.322 89.6C226.189 89.2 226.122 88.5333 226.122 87.6C226.122 85.4667 226.922 83.7333 228.522 82.4C230.122 80.9333 232.055 79.6667 234.322 78.6C236.589 77.5333 238.655 76.6 240.522 75.8C244.922 73.9333 249.455 72.4 254.122 71.2C258.789 70 263.522 69.4 268.322 69.4C273.789 69.4 280.589 69.6 288.722 70C294.989 63.8667 300.789 58.0667 306.122 52.6C311.455 47.1333 315.789 42.6 319.122 39C323.789 34.0667 328.722 29.8667 333.922 26.4C339.255 22.8 344.655 20.2667 350.122 18.8H339.122C334.455 18.8 329.389 19 323.922 19.4C318.455 19.8 313.322 20.6667 308.522 22C303.722 23.3333 299.722 25.3333 296.522 28C294.522 29.7333 292.989 31.7333 291.922 34C290.989 36.1333 290.522 38.1333 290.522 40C290.522 42.5333 291.255 44.2667 292.722 45.2C292.855 45.2 292.922 45.2667 292.922 45.4C292.922 45.8 292.455 46.2667 291.522 46.8C290.589 47.2 289.922 47.2667 289.522 47C288.189 46.0667 286.989 44.2 285.922 41.4C284.989 38.4667 284.655 36.1333 284.922 34.4C285.589 30.2667 287.389 26.9333 290.322 24.4C293.389 21.7333 297.122 19.6667 301.522 18.2C306.055 16.7333 310.789 15.7333 315.722 15.2C320.789 14.6667 325.589 14.3333 330.122 14.2C334.789 14.0667 338.722 14 341.922 14H363.722C363.989 14 364.055 14.0667 363.922 14.2C367.255 12.7333 370.722 11.2667 374.322 9.79999C378.055 8.33333 381.255 7.6 383.922 7.6C384.589 7.6 385.255 7.8 385.922 8.2C386.722 8.6 387.122 8.99999 387.122 9.4C387.122 10.0667 385.789 10.4 383.122 10.4C381.789 10.4 380.389 10.6667 378.922 11.2C377.589 11.6 375.789 13 373.522 15.4C371.655 17.2667 369.322 20.2667 366.522 24.4C363.722 28.5333 360.655 33.4 357.322 39C353.989 44.4667 350.655 50.3333 347.322 56.6C343.989 62.7333 340.789 68.8 337.722 74.8C334.655 80.8 331.989 86.3333 329.722 91.4C329.455 92.2 328.722 94.0667 327.522 97C326.322 99.8 325.189 102.933 324.122 106.4C323.055 109.733 322.522 112.733 322.522 115.4C322.522 119 323.789 120.8 326.322 120.8C327.522 120.8 328.722 120.533 329.922 120C331.655 119.333 333.455 118.333 335.322 117C337.189 115.667 338.989 114.133 340.722 112.4C344.189 109.067 347.122 105.867 349.522 102.8C351.922 99.6 353.389 97.6667 353.922 97C354.322 96.3333 354.789 96 355.322 96C355.855 96 356.122 96.3333 356.122 97C356.122 97.4 355.922 97.9333 355.522 98.6C354.589 99.9333 352.855 102.267 350.322 105.6C347.789 108.8 344.789 112.067 341.322 115.4C337.989 118.733 334.389 121.267 330.522 123C329.322 123.533 328.055 123.933 326.722 124.2C325.389 124.6 324.055 124.8 322.722 124.8C320.055 124.8 317.589 123.867 315.322 122C313.189 120.133 312.122 117.067 312.122 112.8C312.122 108.933 312.855 104.8 314.322 100.4C315.922 95.8667 317.389 92.2 318.722 89.4C321.389 83.6667 324.522 77.2667 328.122 70.2C331.855 63.1333 335.655 56.0667 339.522 49C343.522 41.9333 347.189 35.5333 350.522 29.8C353.855 24.0667 356.589 19.8 358.722 17C356.589 17 353.722 17.8667 350.122 19.6C346.522 21.2 342.655 23.4 338.522 26.2C334.522 28.8667 330.789 32 327.322 35.6C323.189 39.8667 318.389 45.0667 312.922 51.2C307.589 57.3333 301.789 63.7333 295.522 70.4C298.589 70.5333 301.655 70.6667 304.722 70.8C307.789 70.8 310.855 70.8 313.922 70.8C316.055 70.8 318.389 70.6 320.922 70.2C323.589 69.6667 326.055 68.8667 328.322 67.8C328.322 67.8 327.922 68.5333 327.122 70C326.455 71.3333 325.255 72.7333 323.522 74.2C321.922 75.5333 319.722 76.3333 316.922 76.6C314.389 76.7333 311.855 76.8667 309.322 77C306.789 77 304.255 77 301.722 77C299.589 77 297.455 77 295.322 77C293.322 77 291.322 76.9333 289.322 76.8C283.189 83.2 276.789 89.4667 270.122 95.6C263.455 101.6 256.722 107.067 249.922 112C243.122 116.933 236.322 120.8 229.522 123.6C222.855 126.533 216.322 128 209.922 128Z" fill="white"/>
<path d="M366.038 123.4C362.038 123.4 359.304 122.467 357.837 120.6C356.371 118.6 355.638 116.2 355.638 113.4C355.638 109.667 356.438 105.667 358.038 101.4C359.771 97.1333 361.171 93.8 362.237 91.4C360.504 93.2667 358.837 95.0667 357.237 96.8C355.637 98.5333 354.504 99.8 353.837 100.6C353.437 101.133 353.104 101.4 352.837 101.4C352.571 101.4 352.438 101.067 352.438 100.4C352.438 99.3333 352.771 98.3333 353.438 97.4C355.304 95 357.437 92.4667 359.837 89.8C362.237 87.1333 364.571 84.3333 366.837 81.4C369.504 76.4667 372.438 70.7333 375.638 64.2C378.971 57.5333 382.371 50.7333 385.837 43.8C389.437 36.7333 392.904 30.2667 396.238 24.4C399.704 18.4 402.771 13.6 405.438 10C407.704 9.06666 409.837 7.86666 411.837 6.4C413.971 4.93333 416.038 3.59999 418.038 2.39999C420.171 1.06666 422.371 0.399995 424.638 0.399995C426.104 0.399995 427.171 0.799994 427.837 1.59999C428.637 2.4 429.171 3.33333 429.438 4.39999C429.571 4.79999 429.638 5.53333 429.638 6.6C429.638 9.66667 428.571 13.4 426.438 17.8C424.438 22.2 422.038 26.5333 419.238 30.8C416.571 34.9333 414.238 38.3333 412.238 41C406.904 48.4667 401.437 55.2667 395.837 61.4C390.237 67.4 385.171 72.4667 380.638 76.6C376.238 80.6 373.038 83.5333 371.038 85.4C370.104 87.1333 368.971 89.4667 367.638 92.4C366.438 95.2 365.371 98.2 364.438 101.4C363.504 104.467 363.038 107.333 363.038 110C363.038 112.267 363.571 114.2 364.638 115.8C365.704 117.267 367.504 118 370.038 118C370.438 118 370.837 118 371.237 118C371.637 118 372.104 117.933 372.638 117.8C374.904 117.4 377.371 116.133 380.038 114C382.704 111.867 385.371 109.4 388.038 106.6C390.704 103.8 393.104 101.133 395.237 98.6C396.171 97.5333 397.037 96.5333 397.837 95.6C398.637 94.5333 399.171 93.8 399.438 93.4C400.371 94.3333 400.304 95.5333 399.237 97C398.304 98.3333 397.504 99.4667 396.837 100.4C395.904 101.6 394.571 103.267 392.837 105.4C391.104 107.4 389.104 109.6 386.837 112C384.304 114.533 381.171 117.067 377.438 119.6C373.704 122.133 369.904 123.4 366.038 123.4ZM374.438 77.4C378.571 73.9333 383.771 69 390.038 62.6C396.438 56.0667 402.704 48.2 408.837 39C409.504 37.9333 410.571 36.1333 412.038 33.6C413.638 31.0667 415.237 28.2 416.837 25C418.571 21.6667 420.038 18.4667 421.238 15.4C422.438 12.2 423.038 9.46666 423.038 7.19999C423.038 5.06666 422.438 4 421.238 4C419.771 4 417.838 5.26666 415.438 7.79999C412.638 10.7333 409.437 15.0667 405.837 20.8C402.371 26.4 398.704 32.6667 394.837 39.6C390.971 46.5333 387.238 53.3333 383.638 60C380.171 66.6667 377.104 72.4667 374.438 77.4Z" fill="white"/>
<path d="M332.211 193C327.144 193 322.278 191.8 317.611 189.4C312.811 187.133 309.278 183.6 307.011 178.8C306.211 177.067 305.678 175.2 305.411 173.2C305.144 171.333 305.011 169.467 305.011 167.6V165.4C305.011 164.333 305.144 163.333 305.411 162.4C305.678 161.6 306.344 161.2 307.411 161.2C307.811 161.2 308.011 161.333 308.011 161.6C308.011 162.4 307.944 163.2 307.811 164C307.544 164.8 307.411 165.667 307.411 166.6C307.411 172.733 309.411 177.4 313.411 180.6C317.278 183.8 322.144 185.4 328.011 185.4C330.411 185.4 332.878 185.133 335.411 184.6C337.944 184.067 340.344 183.333 342.611 182.4C351.011 178.8 358.344 173.733 364.611 167.2C370.878 160.667 376.344 153.267 381.011 145C385.678 136.733 389.811 128.267 393.411 119.6C397.278 110.133 400.944 100.8 404.411 91.6C408.011 82.2667 412.011 73.1333 416.411 64.2C420.544 55.9333 424.944 49.7333 429.611 45.6C434.278 41.4667 438.944 39.4 443.611 39.4C444.811 39.4 445.944 39.7333 447.011 40.4C448.211 41.0667 448.744 42.1333 448.611 43.6L448.211 49.2C448.211 49.6 447.944 49.8 447.411 49.8C447.411 49.8 447.344 49.8 447.211 49.8C447.211 49.8 447.211 49.7333 447.211 49.6C447.211 48 446.611 46.9333 445.411 46.4C444.344 45.7333 443.278 45.4 442.211 45.4C437.678 45.4 433.611 47 430.011 50.2C426.544 53.2667 423.478 57.2667 420.811 62.2C418.144 67.1333 415.878 72.3333 414.011 77.8C412.144 83.1333 410.611 88.0667 409.411 92.6C410.344 91.8 412.011 90.1333 414.411 87.6C416.944 85.0667 419.878 82.3333 423.211 79.4C426.544 76.4667 429.944 73.9333 433.411 71.8C436.878 69.6667 440.078 68.6 443.011 68.6C444.744 68.6 445.744 69.4 446.011 71C446.411 72.4667 446.478 73.8667 446.211 75.2C445.544 80.1333 443.878 85.4667 441.211 91.2C438.544 96.9333 435.078 102.4 430.811 107.6C426.678 112.667 422.011 116.8 416.811 120C411.744 123.2 406.411 124.8 400.811 124.8C400.144 124.8 399.211 124.733 398.011 124.6C396.944 124.6 396.278 124.467 396.011 124.2C393.211 132.6 389.611 141.2 385.211 150C380.811 158.8 375.544 166.733 369.411 173.8C363.144 181 355.744 186.4 347.211 190C342.678 192 337.678 193 332.211 193ZM403.811 121.4C405.811 121.4 408.078 120.6 410.611 119C413.278 117.267 415.278 115.733 416.611 114.4C418.211 112.933 420.078 110.667 422.211 107.6C424.478 104.4 426.678 100.933 428.811 97.2C431.078 93.4667 432.944 89.8667 434.411 86.4C435.878 82.9333 436.611 80.1333 436.611 78C436.611 77.3333 436.478 76.7333 436.211 76.2C435.944 75.6667 435.478 75.4 434.811 75.4C433.611 75.4 432.011 76.1333 430.011 77.6C428.011 79.0667 425.878 80.8667 423.611 83C421.478 85 419.478 87 417.611 89C415.744 90.8667 414.411 92.2667 413.611 93.2C412.278 94.8 410.478 97.1333 408.211 100.2C405.944 103.267 403.944 106.4 402.211 109.6C400.478 112.667 399.611 115.267 399.611 117.4C399.611 120.067 401.011 121.4 403.811 121.4Z" fill="white"/>
<path d="M476.188 124.2C474.188 124.2 472.388 123.8 470.788 123C469.321 122.2 468.587 120.733 468.587 118.6C468.587 117.4 468.854 116.067 469.388 114.6C470.588 111.533 472.188 107.8 474.188 103.4C476.321 99 478.454 94.7333 480.587 90.6C482.721 86.3333 484.387 82.8667 485.587 80.2C486.387 78.6 486.788 77.4667 486.788 76.8C486.788 75.6 486.121 75.3333 484.788 76C483.454 76.6667 481.988 77.6 480.388 78.8C478.788 80 477.588 80.9333 476.788 81.6C473.321 84.8 469.654 88.6 465.788 93C462.054 97.2667 458.588 101.8 455.388 106.6C452.321 111.267 449.921 115.933 448.188 120.6C448.054 121.4 447.187 122.067 445.587 122.6C443.987 123.133 442.521 123.4 441.188 123.4C439.054 123.4 438.254 122.733 438.788 121.4C441.854 114.467 444.987 106.8 448.188 98.4C451.521 90 455.254 81.4 459.388 72.6C462.454 65.9333 465.854 59.0667 469.587 52C473.454 44.9333 477.721 38.2 482.388 31.8C487.054 25.2667 492.188 19.5333 497.788 14.6C502.721 10.3333 508.121 6.86667 513.987 4.19999C519.987 1.4 526.454 0 533.388 0C536.454 0 539.121 0.666666 541.388 2C543.654 3.2 544.921 5.4 545.188 8.6V10.4C545.188 12.2667 544.988 14.1333 544.588 16C544.454 16.5333 543.921 16.8 542.987 16.8C542.587 16.8 542.454 16.7333 542.588 16.6C543.121 13.1333 542.187 10.6667 539.787 9.2C537.521 7.73333 534.587 6.99999 530.987 6.99999C524.454 6.99999 518.454 8.19999 512.987 10.6C507.521 13 502.454 16.2 497.788 20.2C490.588 26.4667 484.321 34.4667 478.987 44.2C473.654 53.9333 469.054 63.8667 465.188 74C463.321 78.9333 461.454 83.8667 459.587 88.8C457.854 93.7333 456.187 98.3333 454.587 102.6C460.587 94.6 466.321 87.7333 471.788 82C477.388 76.2667 482.254 72.2 486.388 69.8C489.721 67.9333 492.721 67 495.388 67C497.921 67 499.188 68.0667 499.188 70.2C499.188 72.0667 498.254 74.4667 496.388 77.4C495.454 78.8667 493.987 81.3333 491.987 84.8C490.121 88.2667 488.121 92.0667 485.987 96.2C483.987 100.2 482.254 103.933 480.788 107.4C479.321 110.867 478.587 113.4 478.587 115C478.587 117.133 479.521 118.2 481.388 118.2C482.454 118.2 483.654 117.867 484.987 117.2C486.454 116.533 487.521 115.933 488.188 115.4C491.788 112.733 495.321 109.467 498.788 105.6C502.254 101.733 505.187 98.3333 507.587 95.4C507.721 95.2667 507.788 95.4667 507.788 96C507.788 96.5333 507.654 97.3333 507.388 98.4C507.254 99.3333 506.854 100.133 506.188 100.8C504.721 102.8 503.187 104.733 501.587 106.6C500.121 108.333 498.654 110.067 497.188 111.8C494.654 114.733 491.587 117.533 487.987 120.2C484.521 122.867 480.587 124.2 476.188 124.2Z" fill="white"/>
<path d="M532.577 123.6C531.243 123.6 530.11 123.333 529.177 122.8C528.243 122.267 527.777 121.267 527.777 119.8C527.777 117.933 528.243 115.8 529.177 113.4C530.11 111 531.177 108.667 532.377 106.4C533.577 104 534.643 102.067 535.577 100.6C530.91 105.533 526.043 110.2 520.977 114.6C518.443 116.733 515.643 118.733 512.577 120.6C509.51 122.467 506.243 123.4 502.777 123.4C501.443 123.4 500.51 123 499.977 122.2C499.443 121.267 499.177 120.2 499.177 119C499.177 118.333 499.243 117.867 499.377 117.6C500.043 112.4 501.71 107 504.377 101.4C507.043 95.8 510.31 90.5333 514.177 85.6C518.043 80.6667 521.977 76.6667 525.977 73.6C530.51 70.1333 535.51 68.4 540.977 68.4H563.977C564.643 68.4 564.977 68.6667 564.977 69.2C564.977 70.2667 564.377 70.8 563.177 70.8C561.843 70.8 560.51 71.6667 559.177 73.4C557.843 75 556.843 76.3333 556.177 77.4C555.243 78.8667 553.777 81.3333 551.777 84.8C549.777 88.2667 547.71 92.0667 545.577 96.2C543.577 100.2 541.843 103.933 540.377 107.4C538.91 110.867 538.177 113.4 538.177 115C538.177 116.867 539.11 117.8 540.977 117.8C542.977 117.8 545.243 116.867 547.777 115C550.31 113.133 552.843 110.867 555.377 108.2C558.043 105.4 560.443 102.667 562.577 100C564.843 97.2 566.643 95 567.977 93.4C568.777 94.2 568.71 95.3333 567.777 96.8C566.977 98.1333 566.243 99.2 565.577 100C562.91 103.467 559.843 107.067 556.377 110.8C552.91 114.4 549.11 117.467 544.977 120C540.977 122.4 536.843 123.6 532.577 123.6ZM510.977 116.6C512.577 116.6 514.777 115.467 517.577 113.2C520.51 110.8 523.643 107.867 526.977 104.4C530.31 100.8 533.443 97.0667 536.377 93.2C539.31 89.2 541.71 85.6 543.577 82.4C545.577 79.0667 546.577 76.5333 546.577 74.8C546.577 73.3333 546.11 72.3333 545.177 71.8C544.377 71.2667 543.31 71 541.977 71C539.843 71 537.51 71.8 534.977 73.4C532.577 74.8667 530.643 76.3333 529.177 77.8C527.577 79.2667 525.643 81.6 523.377 84.8C521.243 87.8667 519.11 91.2667 516.977 95C514.843 98.7333 513.043 102.333 511.577 105.8C510.11 109.267 509.377 112.067 509.377 114.2C509.377 115.8 509.91 116.6 510.977 116.6Z" fill="white"/>
<path d="M603.766 125.4C598.432 125.4 593.099 124.933 587.766 124C582.432 123.2 577.566 121.667 573.166 119.4C568.899 117.133 565.432 113.933 562.766 109.8C560.099 105.667 558.766 100.333 558.766 93.8C558.766 88.3333 559.832 82.0667 561.966 75C564.232 67.8 567.566 60.6 571.966 53.4C576.366 46.0667 581.832 39.2667 588.366 33C595.032 26.7333 602.699 21.7333 611.366 18C620.166 14.1333 630.032 12.2 640.966 12.2C656.966 12.2 668.632 14.8 675.966 20C683.299 25.0667 686.966 33 686.966 43.8C686.966 54.3333 684.766 64.4667 680.366 74.2C676.099 83.9333 670.099 92.6667 662.366 100.4C654.766 108.133 645.966 114.267 635.966 118.8C625.966 123.2 615.232 125.4 603.766 125.4ZM602.166 122.4C610.299 122.4 618.032 120.867 625.366 117.8C632.832 114.6 639.566 110.333 645.566 105C651.699 99.5333 656.966 93.3333 661.366 86.4C665.899 79.4667 669.366 72.2 671.766 64.6C674.299 57 675.566 49.4667 675.566 42C675.566 33.7333 672.966 27.2 667.766 22.4C662.566 17.6 653.766 15.2 641.366 15.2C634.299 15.2 627.232 17 620.166 20.6C613.232 24.0667 606.699 28.7333 600.566 34.6C594.566 40.4667 589.166 46.9333 584.366 54C579.699 61.0667 576.032 68.2 573.366 75.4C570.699 82.6 569.366 89.3333 569.366 95.6C569.366 104 571.832 110.6 576.766 115.4C581.832 120.067 590.299 122.4 602.166 122.4Z" fill="white"/>
<path d="M684.116 126C683.582 126 683.582 125.4 684.116 124.2C684.782 123 685.382 121.667 685.916 120.2C686.582 118.733 687.249 117.133 687.916 115.4C689.249 112.2 690.716 108.6 692.316 104.6C693.916 100.6 695.449 96.7333 696.916 93C698.382 89.1333 699.649 85.8667 700.716 83.2C701.916 80.4 702.716 78.6 703.116 77.8C701.249 79.8 698.982 82.3333 696.316 85.4C693.782 88.3333 691.382 91.2 689.116 94C686.849 96.8 685.116 99 683.916 100.6C683.516 101.133 683.182 101.4 682.916 101.4C682.649 101.4 682.516 101.067 682.516 100.4C682.516 99.3333 682.849 98.3333 683.516 97.4C686.049 94.2 688.849 90.6 691.916 86.6C695.116 82.6 697.982 78.9333 700.516 75.6C703.049 72.1333 704.649 69.8667 705.316 68.8C706.782 68.5333 708.916 68.1333 711.716 67.6C714.649 67.0667 716.649 66.3333 717.716 65.4C718.116 65 718.516 64.8 718.916 64.8C719.182 64.8 719.316 65.0667 719.316 65.6C719.449 66 719.316 66.4667 718.916 67C718.116 67.9333 716.716 70.1333 714.716 73.6C712.849 76.9333 710.782 80.6667 708.516 84.8C706.382 88.9333 704.382 92.6667 702.516 96C704.116 93.8667 705.849 91.8 707.716 89.8C709.582 87.8 711.382 85.8667 713.116 84C714.716 82.4 716.916 80.4 719.716 78C722.516 75.6 725.449 73.4 728.516 71.4C731.582 69.4 734.249 68.2667 736.516 68C737.049 67.8667 737.516 67.8 737.916 67.8C738.449 67.8 738.849 67.8 739.116 67.8C742.049 67.8 743.516 68.8667 743.516 71C743.516 72.6 742.649 74.7333 740.916 77.4C739.982 78.8667 738.516 81.3333 736.516 84.8C734.649 88.1333 732.716 91.8 730.716 95.8C728.849 99.6667 727.182 103.333 725.716 106.8C724.382 110.133 723.716 112.6 723.716 114.2C723.716 116.067 724.649 117 726.516 117C728.782 117 731.249 115.867 733.916 113.6C736.716 111.333 739.716 108.467 742.916 105C746.116 101.4 749.316 97.6 752.516 93.6C752.782 93.8667 752.916 94.3333 752.916 95C752.916 95.9333 752.582 96.8667 751.916 97.8C751.382 98.6 750.849 99.3333 750.316 100C748.982 101.733 747.182 103.933 744.916 106.6C742.782 109.133 740.582 111.667 738.316 114.2C736.049 116.6 733.982 118.533 732.116 120C730.782 120.933 729.049 121.933 726.916 123C724.782 124.067 722.649 124.6 720.516 124.6C718.116 124.6 716.449 124 715.516 122.8C714.582 121.467 714.116 119.867 714.116 118C714.116 115.867 714.516 113.6 715.316 111.2C716.116 108.8 716.982 106.533 717.916 104.4C718.982 102.133 719.782 100.467 720.316 99.4C722.716 94.7333 724.916 90.3333 726.916 86.2C728.916 82.0667 730.316 79.1333 731.116 77.4C731.516 76.6 731.716 75.9333 731.716 75.4C731.716 74.4667 730.982 74.4 729.516 75.2C728.049 76 726.249 77.2 724.116 78.8C722.116 80.4 720.249 82 718.516 83.6C716.782 85.0667 715.649 86.0667 715.116 86.6C710.182 91.8 705.849 97.6 702.116 104C698.516 110.267 695.449 116.733 692.916 123.4C691.182 123.533 689.449 124 687.716 124.8C685.982 125.6 684.782 126 684.116 126Z" fill="white"/>
<path d="M760.331 124.6C754.865 124.6 751.065 123.533 748.931 121.4C746.798 119.267 745.731 116.667 745.731 113.6C745.731 109.733 746.731 105.6 748.731 101.2C750.865 96.8 752.865 93.0667 754.731 90C756.865 86.8 759.731 83.4667 763.331 80C766.931 76.5333 770.865 73.6 775.131 71.2C779.398 68.8 783.531 67.6 787.531 67.6C790.998 67.6 793.398 68.4667 794.731 70.2C796.065 71.8 796.731 73.7333 796.731 76C796.731 80.1333 795.465 83.5333 792.931 86.2C790.531 88.8667 787.531 91.0667 783.931 92.8C780.331 94.4 776.865 95.7333 773.531 96.8C771.531 97.3333 769.198 97.8667 766.531 98.4C763.865 98.9333 761.331 99.2 758.931 99.2C757.998 101.6 757.265 103.933 756.731 106.2C756.198 108.467 755.931 110.533 755.931 112.4C755.931 114.667 756.465 116.533 757.531 118C758.731 119.467 760.665 120.2 763.331 120.2C764.398 120.2 765.665 120.067 767.131 119.8C768.598 119.533 770.198 119.133 771.931 118.6C775.931 117.267 779.865 115.133 783.731 112.2C787.598 109.267 791.131 106.133 794.331 102.8C797.665 99.3333 800.198 96.4667 801.931 94.2C802.331 94.6 802.531 95.0667 802.531 95.6C802.531 96.2667 802.065 97.3333 801.131 98.8C798.465 102.533 794.998 106.4 790.731 110.4C786.465 114.4 781.731 117.8 776.531 120.6C771.331 123.267 765.931 124.6 760.331 124.6ZM760.531 95.2C762.265 95.3333 764.198 95.3333 766.331 95.2C768.598 94.9333 770.798 94.4667 772.931 93.8C778.398 92.2 782.331 89.6667 784.731 86.2C787.265 82.6 788.531 79.4 788.531 76.6C788.531 75 788.198 73.6667 787.531 72.6C786.865 71.5333 785.798 71 784.331 71C780.465 71 776.998 72.4667 773.931 75.4C770.865 78.2 768.198 81.4667 765.931 85.2C763.665 88.9333 761.865 92.2667 760.531 95.2Z" fill="white"/>
<path d="M810.736 126.2C808.336 126.2 805.803 125.867 803.136 125.2C800.469 124.533 798.069 123.467 795.936 122C793.936 120.4 792.603 118.267 791.936 115.6C791.803 115.2 791.736 114.6 791.736 113.8C791.736 111.933 792.136 109.867 792.936 107.6C793.869 105.333 795.003 103.733 796.336 102.8C796.869 102.533 797.269 102.533 797.536 102.8C797.936 103.067 798.003 103.333 797.736 103.6C797.603 104 797.403 104.533 797.136 105.2C796.869 105.733 796.669 106.333 796.536 107C796.136 110.467 796.869 113.533 798.736 116.2C799.536 117.267 800.469 118.267 801.536 119.2C802.736 120.133 803.869 120.933 804.936 121.6C805.869 122.133 807.003 122.533 808.336 122.8C809.669 122.933 811.003 123 812.336 123C814.469 123 816.536 122.733 818.536 122.2C820.536 121.667 822.003 120.8 822.936 119.6C824.669 117.467 825.536 115.067 825.536 112.4C825.536 110.4 825.003 108.267 823.936 106C822.869 103.733 821.203 101.333 818.936 98.8C817.469 97.2 816.069 95.4667 814.736 93.6C813.403 91.7333 812.536 89.7333 812.136 87.6C812.003 87.2 811.869 86.8 811.736 86.4C811.736 86 811.736 85.6 811.736 85.2C810.003 87.7333 808.203 90.1333 806.336 92.4C804.603 94.5333 803.069 96.4 801.736 98C801.203 98.8 800.736 99.2 800.336 99.2C800.069 99.2 799.936 98.9333 799.936 98.4C799.936 97.2 800.469 95.9333 801.536 94.6C802.603 93.4 803.803 91.9333 805.136 90.2C806.469 88.3333 807.536 86.8667 808.336 85.8C810.603 82.4667 812.269 79.8667 813.336 78C814.536 76 815.803 74.2 817.136 72.6C818.603 70.8667 820.403 69.4667 822.536 68.4C824.803 67.3333 827.136 66.8 829.536 66.8C832.336 66.8 834.869 67.2667 837.136 68.2C839.536 69 840.803 71.1333 840.936 74.6C840.936 76.2 840.603 77.8667 839.936 79.6C839.403 81.2 838.803 82.7333 838.136 84.2C837.736 85 837.136 85.6 836.336 86C835.669 86.2667 835.336 86.1333 835.336 85.6C835.336 85.0667 835.403 84.4667 835.536 83.8C835.669 83.1333 835.736 82.5333 835.736 82C835.736 79.7333 835.336 77.7333 834.536 76C833.869 74.1333 832.869 72.8 831.536 72C830.203 71.0667 828.803 70.6 827.336 70.6C825.203 70.6 823.136 71.4667 821.136 73.2C819.136 74.8 818.136 76.9333 818.136 79.6C818.136 79.8667 818.136 80.2 818.136 80.6C818.136 81 818.203 81.3333 818.336 81.6C818.869 83.7333 820.469 86.1333 823.136 88.8C825.803 91.4667 827.869 93.8 829.336 95.8C831.869 99.2667 833.136 102.8 833.136 106.4C833.136 110 832.069 113.333 829.936 116.4C827.936 119.333 825.203 121.667 821.736 123.4C818.403 125.267 814.736 126.2 810.736 126.2Z" fill="white"/>
</svg>
