<svg preserveAspectRatio="none" width="100%" height="100%" overflow="visible" style="display: block;" viewBox="0 0 27.81 21.5276" fill="none" xmlns="http://www.w3.org/2000/svg">
<g id="Group">
<path id="Vector" d="M23.5577 1.80294C21.7575 0.960671 19.8327 0.348548 17.8203 0C17.5732 0.446826 17.2844 1.04782 17.0853 1.5259C14.9461 1.20419 12.8266 1.20419 10.7267 1.5259C10.5277 1.04782 10.2324 0.446826 9.98305 0C7.9685 0.348548 6.04144 0.96292 4.24125 1.8074C0.610247 7.29432 -0.374057 12.6449 0.118096 17.9196C2.52637 19.718 4.86027 20.8105 7.15479 21.5254C7.72132 20.7457 8.22658 19.9169 8.66186 19.0434C7.83286 18.7284 7.03886 18.3396 6.28862 17.8883C6.48766 17.7409 6.68234 17.5867 6.87044 17.4281C11.4464 19.5684 16.4182 19.5684 20.9395 17.4281C21.1298 17.5867 21.3244 17.7409 21.5213 17.8883C20.7688 18.3418 19.9727 18.7306 19.1437 19.0456C19.5789 19.9169 20.082 20.748 20.6507 21.5276C22.9475 20.8127 25.2835 19.7203 27.6918 17.9196C28.2693 11.8049 26.7053 6.50344 23.5577 1.80294ZM9.28527 14.6757C7.91162 14.6757 6.78512 13.3934 6.78512 11.8317C6.78512 10.2701 7.88757 8.98552 9.28527 8.98552C10.683 8.98552 11.8095 10.2679 11.7854 11.8317C11.7876 13.3934 10.683 14.6757 9.28527 14.6757ZM18.5246 14.6757C17.151 14.6757 16.0245 13.3934 16.0245 11.8317C16.0245 10.2701 17.1269 8.98552 18.5246 8.98552C19.9223 8.98552 21.0488 10.2679 21.0248 11.8317C21.0248 13.3934 19.9223 14.6757 18.5246 14.6757Z" fill="var(--fill-0, white)"/>
</g>
</svg>
