<svg preserveAspectRatio="none" width="100%" height="100%" overflow="visible" style="display: block;" viewBox="0 0 27.8099 21.8285" fill="none" xmlns="http://www.w3.org/2000/svg">
<g id="Group">
<path id="Vector" d="M27.7382 3.1076C27.6128 2.47612 27.3328 1.89825 26.9418 1.42086C26.8594 1.31685 26.7732 1.22369 26.6798 1.13054C25.987 0.434314 25.0147 0 23.9524 0H3.85761C2.79534 0 1.82644 0.434314 1.13038 1.13054C1.03723 1.22369 0.95108 1.31685 0.868411 1.42086C0.47717 1.8982 0.197169 2.47612 0.0752825 3.1076C0.0252028 3.35132 0 3.60319 0 3.85782V17.971C0 18.5124 0.114825 19.0329 0.319598 19.5029C0.509542 19.9516 0.789598 20.3575 1.13032 20.6979C1.21669 20.7841 1.30245 20.8633 1.39604 20.942C2.06337 21.4947 2.92478 21.8285 3.85761 21.8285H23.9524C24.8856 21.8285 25.7507 21.4947 26.4142 20.9385C26.5075 20.8633 26.5937 20.7841 26.6798 20.6979C27.0204 20.3575 27.3004 19.9516 27.4943 19.5029V19.4994C27.699 19.0294 27.8099 18.5124 27.8099 17.9711V3.85782C27.81 3.60319 27.7852 3.35132 27.7382 3.1076ZM2.5262 2.5262C2.87084 2.18194 3.33367 1.97353 3.85761 1.97353H23.9524C24.4763 1.97353 24.9432 2.18194 25.2838 2.5262C25.3447 2.58752 25.4022 2.65585 25.4528 2.72375L14.9205 11.903C14.63 12.1575 14.2712 12.2833 13.905 12.2833C13.5425 12.2833 13.1839 12.1575 12.8896 11.903L2.36124 2.71984C2.40785 2.65194 2.46526 2.58752 2.5262 2.5262ZM1.97353 17.971V4.76208L9.59543 11.4112L1.97739 18.0533C1.97353 18.0281 1.97353 17.9998 1.97353 17.971ZM23.9524 19.8545H3.85761C3.51644 19.8545 3.19723 19.7649 2.92478 19.6073L10.9624 12.6027L11.7128 13.2555C12.3407 13.8011 13.1265 14.0775 13.905 14.0775C14.6875 14.0775 15.4732 13.8011 16.1011 13.2555L16.8511 12.6027L24.8856 19.6073C24.6128 19.7649 24.2936 19.8545 23.9524 19.8545ZM25.8365 17.971C25.8365 17.9998 25.8365 18.0281 25.8328 18.0533L18.2148 11.4151L25.8365 4.76561V17.971Z" fill="var(--fill-0, white)"/>
</g>
</svg>
