<svg preserveAspectRatio="none" width="100%" height="100%" overflow="visible" style="display: block;" viewBox="0 0 27.8121 27.8121" fill="none" xmlns="http://www.w3.org/2000/svg">
<g id="github-svgrepo-com(1) 1">
<path id="Vector" d="M21.637 3.04385C21.5113 2.74046 21.2686 2.50833 20.9702 2.40606L20.968 2.40533L20.9659 2.4046L20.9615 2.40313L20.9524 2.40012L20.9328 2.39396C20.9191 2.38979 20.9043 2.38554 20.8883 2.38126C20.8563 2.37271 20.8197 2.36411 20.7785 2.35614C20.696 2.34017 20.5958 2.3268 20.4776 2.32091C20.2403 2.30909 19.9363 2.32762 19.5632 2.41101C18.9409 2.55006 18.133 2.86771 17.1188 3.51859C17.0525 3.56113 16.9853 3.6051 16.9173 3.65053C16.8492 3.63366 16.781 3.61737 16.7128 3.60167C14.8634 3.17618 12.9491 3.17618 11.0996 3.60167C11.0314 3.61738 10.9632 3.63366 10.8951 3.65054C10.827 3.6051 10.7598 3.56113 10.6935 3.51859C9.67819 2.86737 8.86848 2.54978 8.24461 2.41084C7.87059 2.32755 7.56595 2.30912 7.32849 2.3209C7.21013 2.32676 7.10989 2.34005 7.02752 2.35591C6.9864 2.36382 6.94992 2.37234 6.91807 2.3808C6.90214 2.38503 6.88739 2.38925 6.8738 2.39336L6.85431 2.39944L6.84523 2.4024L6.84085 2.40386L6.83871 2.40458L6.83659 2.4053C6.5356 2.50769 6.29107 2.74208 6.16559 3.04845C5.69819 4.18966 5.57413 5.44809 5.79923 6.65528C5.81017 6.71393 5.82193 6.77246 5.83452 6.83086C5.78626 6.89941 5.73938 6.96888 5.69387 7.03923C4.99194 8.12449 4.61858 9.41893 4.63608 10.7481C4.63776 13.5949 5.46931 15.5445 6.87562 16.7991C7.67167 17.5092 8.5956 17.9439 9.52418 18.2179C9.63043 18.2493 9.73675 18.2785 9.84295 18.3058C9.82745 18.3597 9.813 18.4141 9.79961 18.4687C9.74338 18.6987 9.7061 18.9347 9.68885 19.1743C9.68728 19.1959 9.6863 19.2176 9.68591 19.2393L9.64659 21.347L9.64637 21.3698C9.64637 21.3764 9.64637 21.383 9.64637 21.3895C9.57504 21.4072 9.50253 21.4203 9.42926 21.4288C9.20349 21.4548 8.97482 21.4358 8.7563 21.3729C8.53776 21.31 8.33352 21.2043 8.15535 21.0618C7.97718 20.9192 7.82857 20.7425 7.71822 20.5417L7.70685 20.5215C7.40308 19.994 6.98347 19.5425 6.47955 19.2014C5.97562 18.8601 5.40065 18.6383 4.79814 18.5529C4.16446 18.4631 3.57795 18.9039 3.48813 19.5377C3.3983 20.1713 3.83919 20.7578 4.47286 20.8476C4.72593 20.8835 4.9678 20.9767 5.18015 21.1205C5.39 21.2626 5.56563 21.4504 5.69384 21.6703C5.95017 22.1329 6.2944 22.541 6.70737 22.8714C7.12399 23.2048 7.60235 23.4524 8.11502 23.6001C8.6142 23.7438 9.13619 23.7899 9.65253 23.7359C9.65357 24.0139 9.65432 24.2272 9.65432 24.3356C9.65432 24.9756 10.1459 25.4944 10.7522 25.4944H17.0996C17.7059 25.4944 18.1975 24.9756 18.1975 24.3356V19.943C18.2274 19.4455 18.1764 18.9469 18.0475 18.4687C18.0298 18.4029 18.0105 18.3375 17.9899 18.2724C18.0591 18.2552 18.1283 18.237 18.1975 18.2179C19.1529 17.9547 20.1073 17.5244 20.9272 16.8012C22.3414 15.5536 23.1747 13.6023 23.1763 10.7481C23.1938 9.41893 22.8204 8.12449 22.1185 7.03923C22.073 6.96877 22.026 6.89919 21.9776 6.83053C21.9901 6.77224 22.0018 6.71382 22.0127 6.65528C22.2373 5.44577 22.1101 4.18505 21.637 3.04385Z" fill="var(--fill-0, white)"/>
</g>
</svg>
