<svg preserveAspectRatio="none" width="100%" height="100%" overflow="visible" style="display: block;" viewBox="0 0 27.81 22.7115" fill="none" xmlns="http://www.w3.org/2000/svg">
<g id="twitter-svgrepo-com 1" clip-path="url(#clip0_0_4)">
<path id="Vector" d="M18.2506 1.74704C19.6861 1.74704 21.3147 2.31657 22.2274 3.26521C23.3621 3.04509 24.433 2.6424 25.3955 2.08422C25.0239 3.22067 24.231 4.17455 23.2012 4.77728C24.2092 4.6576 25.1743 4.39817 26.0686 4.00945C25.399 4.98517 24.5536 5.84384 23.578 6.5313C23.5867 6.7392 23.592 6.94884 23.592 7.15849C23.592 13.5937 18.7472 20.9645 9.56286 20.9645C6.74444 20.9645 3.94001 20.2071 1.73266 18.8252C2.12255 18.8724 2.52031 18.8951 2.92245 18.8951C5.2618 18.8951 7.41495 18.1168 9.12576 16.8083C6.93851 16.7707 5.09395 15.3617 4.46103 13.4286C4.76438 13.4845 5.07909 13.516 5.4008 13.516C5.85363 13.516 6.29685 13.4574 6.71472 13.3448C4.43044 12.9001 2.71001 10.9312 2.71001 8.57184C2.71001 8.54913 2.71001 8.52904 2.71001 8.50808C3.38402 8.87321 4.15244 9.09333 4.97157 9.11954C3.63142 8.2434 2.7511 6.7558 2.7511 5.06554C2.7511 4.1728 2.99675 3.3351 3.42598 2.61881C5.88773 5.5617 9.5681 7.50178 13.7188 7.70619C13.6322 7.34979 13.5877 6.97418 13.5877 6.59769C13.5877 3.90725 15.4917 1.74704 18.2506 1.74704ZM26.0686 4.00945H26.073ZM18.2506 0C14.8902 0 12.2912 2.4048 11.9013 5.7233C9.11352 5.15813 6.57747 3.67227 4.75564 1.49459C4.42432 1.09801 3.93652 0.871772 3.42598 0.871772C3.38053 0.871772 3.33507 0.873519 3.28961 0.877013C2.73012 0.921563 2.22658 1.23428 1.93722 1.71734C1.33315 2.72713 1.0132 3.88454 1.0132 5.06554C1.0132 5.85258 1.15482 6.6204 1.42057 7.33756C1.13646 7.65377 0.972983 8.06957 0.972983 8.50808V8.57184C0.972983 10.2831 1.64524 11.8703 2.76247 13.0609C2.69865 13.3596 2.71264 13.6749 2.81055 13.9746C3.19694 15.1538 3.89805 16.1688 4.80722 16.9428C4.19615 17.079 3.56586 17.1481 2.92245 17.1481C2.58238 17.1481 2.25281 17.1288 1.94247 17.0904C1.87166 17.0825 1.80172 17.0782 1.73179 17.0782C1.00358 17.0782 0.341812 17.5385 0.0944134 18.2443C-0.176588 19.0165 0.122388 19.8752 0.814753 20.3084C3.29048 21.8581 6.39738 22.7115 9.56286 22.7115C15.5415 22.7115 19.2542 19.9538 21.3156 17.6407C23.8158 14.8358 25.2705 11.1094 25.3273 7.3856C26.1377 6.71037 26.8528 5.9312 27.4586 5.05942C27.678 4.76767 27.8083 4.40341 27.8083 4.00945C27.8083 3.41459 27.5136 2.8896 27.0634 2.57339C27.2584 1.90078 27.0346 1.17226 26.4908 0.727641C26.1735 0.46908 25.7854 0.337178 25.3946 0.337178C25.0965 0.337178 24.7966 0.414048 24.5265 0.571282C23.9452 0.90846 23.3236 1.17401 22.6688 1.36444C21.4659 0.517123 19.8338 0 18.2506 0Z" fill="var(--fill-0, white)"/>
</g>
<defs>
<clipPath id="clip0_0_4">
<rect width="27.81" height="22.7115" fill="white"/>
</clipPath>
</defs>
</svg>
